<svg width="208" height="213" viewBox="0 0 208 213" fill="none" xmlns="http://www.w3.org/2000/svg">
<path d="M46.3237 9.74348C40.9038 10.8033 37.3062 16.109 38.3585 21.4904C39.0782 25.1707 41.7958 27.995 45.1874 29.0708L39.2624 50.1836L22.0275 42.41C23.6617 40.219 24.3604 37.3719 23.8039 34.5259C22.7516 29.1444 17.4204 25.5847 12.0006 26.6445C6.58073 27.7043 2.98314 33.01 4.03544 38.3914C4.89775 42.8013 8.66578 45.8719 12.9582 46.3062L25.5305 78.3423L28.7289 94.6991L94.6238 81.8139L91.4253 65.457L91.0041 31.0449C94.8167 29.0256 97.1506 24.7618 96.2882 20.352C95.2359 14.9706 89.9048 11.4109 84.4849 12.4707C79.0651 13.5305 75.4675 18.8362 76.5198 24.2176C77.077 27.067 78.796 29.4378 81.1319 30.8525L68.0947 44.5456L54.6565 27.2192C56.0451 26.0722 57.0995 24.577 57.7099 22.8895C58.3203 21.202 58.4643 19.3839 58.127 17.6248C57.0747 12.2434 51.7435 8.68366 46.3237 9.74348ZM47.6031 16.2862C49.458 15.9235 51.178 17.0748 51.5375 18.9133C51.8976 20.7551 50.7341 22.4669 48.8825 22.829C47.0275 23.1917 45.3075 22.0404 44.948 20.2019C44.5879 18.3601 45.7514 16.6483 47.6031 16.2862ZM13.28 33.1873C15.1349 32.8245 16.8549 33.9759 17.2144 35.8144C17.5746 37.6562 16.411 39.3679 14.5594 39.73C12.7044 40.0927 10.9844 38.9414 10.6249 37.1029C10.2648 35.2611 11.4283 33.5493 13.28 33.1873ZM85.7643 19.0134C87.6193 18.6507 89.3393 19.802 89.6988 21.6406C90.0589 23.4823 88.8954 25.1941 87.0437 25.5562C85.1888 25.9189 83.4688 24.7676 83.1093 22.9291C82.7491 21.0873 83.9127 19.3755 85.7643 19.0134ZM50.9615 33.461L65.1138 51.7109L70.2958 51.9712L84.4903 37.094L84.8122 63.3537L30.8641 73.9028L21.2741 49.4555L40.027 57.8901L44.7293 55.6969L50.9615 33.461ZM32.7596 80.3251L85.4755 70.0169L86.7549 76.5596L34.039 86.8679L32.7596 80.3251Z" fill="white"/>
<path d="M107.44 174.088C108.72 174.941 109.36 176.008 109.36 177.288C109.36 177.715 109.189 178.269 108.848 178.952C108.507 179.549 108.037 180.019 107.44 180.36C106.843 180.701 106.203 180.872 105.52 180.872C104.667 180.872 103.941 180.701 103.344 180.36C100.955 178.995 99.0347 176.776 97.584 173.704C96.1333 170.632 95.408 165.725 95.408 158.984C95.408 153.011 93.744 148.829 90.416 146.44C87.088 143.965 83.12 142.728 78.512 142.728H50.096V177.16C50.096 178.269 49.7547 179.208 49.072 179.976C48.3893 180.659 47.4933 181 46.384 181C45.1893 181 44.1653 180.659 43.312 179.976C42.4587 179.208 42.032 178.269 42.032 177.16V95.24C42.032 94.1307 42.3733 93.2347 43.056 92.552C43.824 91.784 44.7627 91.4 45.872 91.4H80.432C85.296 91.4 89.648 92.4667 93.488 94.6C97.328 96.648 100.315 99.5067 102.448 103.176C104.667 106.845 105.776 110.984 105.776 115.592C105.776 121.053 104.325 125.875 101.424 130.056C98.608 134.152 94.896 136.968 90.288 138.504C94.0427 139.955 97.1147 142.429 99.504 145.928C101.893 149.341 103.131 153.523 103.216 158.472C103.301 163.763 103.643 167.475 104.24 169.608C104.923 171.741 105.989 173.235 107.44 174.088ZM80.816 135.688C83.8027 135.432 86.576 134.451 89.136 132.744C91.696 131.037 93.744 128.733 95.28 125.832C96.816 122.931 97.584 119.603 97.584 115.848C97.584 110.984 95.92 106.973 92.592 103.816C89.3493 100.573 85.0827 98.952 79.792 98.952H50.096V135.688H80.816ZM191.91 91.4C193.105 91.4 194.043 91.784 194.726 92.552C195.494 93.2347 195.878 94.1733 195.878 95.368V177.032C195.793 178.227 195.366 179.208 194.598 179.976C193.83 180.659 192.891 181 191.782 181C190.673 181 189.734 180.616 188.966 179.848C188.198 179.08 187.814 178.141 187.814 177.032V138.888H135.846V177.032C135.761 178.141 135.334 179.08 134.566 179.848C133.798 180.616 132.859 181 131.75 181C130.555 181 129.574 180.659 128.806 179.976C128.123 179.208 127.782 178.227 127.782 177.032V95.368C127.782 94.1733 128.166 93.2347 128.934 92.552C129.702 91.784 130.683 91.4 131.878 91.4C132.987 91.4 133.926 91.784 134.694 92.552C135.462 93.32 135.846 94.2587 135.846 95.368V131.464H187.814V95.368C187.814 94.2587 188.198 93.32 188.966 92.552C189.819 91.784 190.801 91.4 191.91 91.4Z" fill="white"/>
</svg>
